<mxfile host="app.diagrams.net" modified="2021-05-16T01:41:51.485Z" agent="5.0 (X11; CrOS aarch64 13816.64.0) AppleWebKit/537.36 (KHTML, like Gecko) Chrome/90.0.4430.100 Safari/537.36" etag="GW4jlQ_QYUuhWK8A07BE" version="14.6.13" type="github">
  <diagram id="C5RBs43oDa-KdzZeNtuy" name="Page-1">
    <mxGraphModel dx="582" dy="383" grid="1" gridSize="10" guides="1" tooltips="1" connect="1" arrows="1" fold="1" page="1" pageScale="1" pageWidth="827" pageHeight="1169" math="0" shadow="0">
      <root>
        <mxCell id="WIyWlLk6GJQsqaUBKTNV-0" />
        <mxCell id="WIyWlLk6GJQsqaUBKTNV-1" parent="WIyWlLk6GJQsqaUBKTNV-0" />
        <mxCell id="Ivuzki8OxPt_olRL4Nyn-35" style="edgeStyle=orthogonalEdgeStyle;rounded=0;orthogonalLoop=1;jettySize=auto;html=1;exitX=0.5;exitY=1;exitDx=0;exitDy=0;exitPerimeter=0;entryX=0.587;entryY=-0.042;entryDx=0;entryDy=0;entryPerimeter=0;" edge="1" parent="WIyWlLk6GJQsqaUBKTNV-1" source="Ivuzki8OxPt_olRL4Nyn-0" target="Ivuzki8OxPt_olRL4Nyn-1">
          <mxGeometry relative="1" as="geometry" />
        </mxCell>
        <mxCell id="Ivuzki8OxPt_olRL4Nyn-0" value="Start" style="strokeWidth=2;html=1;shape=mxgraph.flowchart.terminator;whiteSpace=wrap;" vertex="1" parent="WIyWlLk6GJQsqaUBKTNV-1">
          <mxGeometry x="250" y="90" width="100" height="60" as="geometry" />
        </mxCell>
        <mxCell id="Ivuzki8OxPt_olRL4Nyn-36" style="edgeStyle=orthogonalEdgeStyle;rounded=0;orthogonalLoop=1;jettySize=auto;html=1;exitX=0.5;exitY=1;exitDx=0;exitDy=0;entryX=0.6;entryY=0;entryDx=0;entryDy=0;entryPerimeter=0;" edge="1" parent="WIyWlLk6GJQsqaUBKTNV-1" source="Ivuzki8OxPt_olRL4Nyn-1" target="Ivuzki8OxPt_olRL4Nyn-2">
          <mxGeometry relative="1" as="geometry" />
        </mxCell>
        <mxCell id="Ivuzki8OxPt_olRL4Nyn-1" value="Get number_1" style="shape=parallelogram;html=1;strokeWidth=2;perimeter=parallelogramPerimeter;whiteSpace=wrap;rounded=1;arcSize=12;size=0.23;" vertex="1" parent="WIyWlLk6GJQsqaUBKTNV-1">
          <mxGeometry x="240" y="170" width="100" height="60" as="geometry" />
        </mxCell>
        <mxCell id="Ivuzki8OxPt_olRL4Nyn-37" style="edgeStyle=orthogonalEdgeStyle;rounded=0;orthogonalLoop=1;jettySize=auto;html=1;exitX=0.5;exitY=1;exitDx=0;exitDy=0;entryX=0.585;entryY=-0.022;entryDx=0;entryDy=0;entryPerimeter=0;" edge="1" parent="WIyWlLk6GJQsqaUBKTNV-1" source="Ivuzki8OxPt_olRL4Nyn-2" target="Ivuzki8OxPt_olRL4Nyn-3">
          <mxGeometry relative="1" as="geometry" />
        </mxCell>
        <mxCell id="Ivuzki8OxPt_olRL4Nyn-2" value="Get number_2" style="shape=parallelogram;html=1;strokeWidth=2;perimeter=parallelogramPerimeter;whiteSpace=wrap;rounded=1;arcSize=12;size=0.23;" vertex="1" parent="WIyWlLk6GJQsqaUBKTNV-1">
          <mxGeometry x="230" y="250" width="100" height="60" as="geometry" />
        </mxCell>
        <mxCell id="Ivuzki8OxPt_olRL4Nyn-18" style="edgeStyle=orthogonalEdgeStyle;rounded=0;orthogonalLoop=1;jettySize=auto;html=1;exitX=0.5;exitY=1;exitDx=0;exitDy=0;entryX=0.5;entryY=0;entryDx=0;entryDy=0;entryPerimeter=0;" edge="1" parent="WIyWlLk6GJQsqaUBKTNV-1" source="Ivuzki8OxPt_olRL4Nyn-3" target="Ivuzki8OxPt_olRL4Nyn-4">
          <mxGeometry relative="1" as="geometry" />
        </mxCell>
        <mxCell id="Ivuzki8OxPt_olRL4Nyn-3" value="Get number_3" style="shape=parallelogram;html=1;strokeWidth=2;perimeter=parallelogramPerimeter;whiteSpace=wrap;rounded=1;arcSize=12;size=0.23;" vertex="1" parent="WIyWlLk6GJQsqaUBKTNV-1">
          <mxGeometry x="220" y="330" width="100" height="60" as="geometry" />
        </mxCell>
        <mxCell id="Ivuzki8OxPt_olRL4Nyn-24" style="edgeStyle=orthogonalEdgeStyle;rounded=0;orthogonalLoop=1;jettySize=auto;html=1;exitX=0.5;exitY=1;exitDx=0;exitDy=0;exitPerimeter=0;entryX=0.5;entryY=0;entryDx=0;entryDy=0;" edge="1" parent="WIyWlLk6GJQsqaUBKTNV-1" source="Ivuzki8OxPt_olRL4Nyn-4" target="Ivuzki8OxPt_olRL4Nyn-14">
          <mxGeometry relative="1" as="geometry">
            <Array as="points">
              <mxPoint x="270" y="520" />
              <mxPoint x="140" y="520" />
            </Array>
          </mxGeometry>
        </mxCell>
        <mxCell id="Ivuzki8OxPt_olRL4Nyn-25" style="edgeStyle=orthogonalEdgeStyle;rounded=0;orthogonalLoop=1;jettySize=auto;html=1;exitX=0.5;exitY=1;exitDx=0;exitDy=0;exitPerimeter=0;entryX=0.5;entryY=0;entryDx=0;entryDy=0;entryPerimeter=0;" edge="1" parent="WIyWlLk6GJQsqaUBKTNV-1" source="Ivuzki8OxPt_olRL4Nyn-4" target="Ivuzki8OxPt_olRL4Nyn-7">
          <mxGeometry relative="1" as="geometry" />
        </mxCell>
        <mxCell id="Ivuzki8OxPt_olRL4Nyn-4" value="Try int(numbers)" style="strokeWidth=2;html=1;shape=mxgraph.flowchart.decision;whiteSpace=wrap;" vertex="1" parent="WIyWlLk6GJQsqaUBKTNV-1">
          <mxGeometry x="220" y="410" width="100" height="100" as="geometry" />
        </mxCell>
        <mxCell id="Ivuzki8OxPt_olRL4Nyn-22" style="edgeStyle=orthogonalEdgeStyle;rounded=0;orthogonalLoop=1;jettySize=auto;html=1;exitX=0.5;exitY=1;exitDx=0;exitDy=0;exitPerimeter=0;entryX=0.592;entryY=-0.022;entryDx=0;entryDy=0;entryPerimeter=0;" edge="1" parent="WIyWlLk6GJQsqaUBKTNV-1" source="Ivuzki8OxPt_olRL4Nyn-7" target="Ivuzki8OxPt_olRL4Nyn-10">
          <mxGeometry relative="1" as="geometry" />
        </mxCell>
        <mxCell id="Ivuzki8OxPt_olRL4Nyn-26" style="edgeStyle=orthogonalEdgeStyle;rounded=0;orthogonalLoop=1;jettySize=auto;html=1;exitX=1;exitY=0.5;exitDx=0;exitDy=0;exitPerimeter=0;entryX=0;entryY=0.5;entryDx=0;entryDy=0;entryPerimeter=0;" edge="1" parent="WIyWlLk6GJQsqaUBKTNV-1" source="Ivuzki8OxPt_olRL4Nyn-7" target="Ivuzki8OxPt_olRL4Nyn-8">
          <mxGeometry relative="1" as="geometry" />
        </mxCell>
        <mxCell id="Ivuzki8OxPt_olRL4Nyn-7" value="if integer_1 &amp;gt;= integer_2 and integer_3" style="strokeWidth=2;html=1;shape=mxgraph.flowchart.decision;whiteSpace=wrap;" vertex="1" parent="WIyWlLk6GJQsqaUBKTNV-1">
          <mxGeometry x="220" y="535" width="100" height="100" as="geometry" />
        </mxCell>
        <mxCell id="Ivuzki8OxPt_olRL4Nyn-27" style="edgeStyle=orthogonalEdgeStyle;rounded=0;orthogonalLoop=1;jettySize=auto;html=1;exitX=1;exitY=0.5;exitDx=0;exitDy=0;exitPerimeter=0;entryX=0;entryY=0.5;entryDx=0;entryDy=0;entryPerimeter=0;" edge="1" parent="WIyWlLk6GJQsqaUBKTNV-1" source="Ivuzki8OxPt_olRL4Nyn-8" target="Ivuzki8OxPt_olRL4Nyn-9">
          <mxGeometry relative="1" as="geometry" />
        </mxCell>
        <mxCell id="Ivuzki8OxPt_olRL4Nyn-30" style="edgeStyle=orthogonalEdgeStyle;rounded=0;orthogonalLoop=1;jettySize=auto;html=1;exitX=0.5;exitY=1;exitDx=0;exitDy=0;exitPerimeter=0;entryX=0.607;entryY=0.022;entryDx=0;entryDy=0;entryPerimeter=0;" edge="1" parent="WIyWlLk6GJQsqaUBKTNV-1" source="Ivuzki8OxPt_olRL4Nyn-8" target="Ivuzki8OxPt_olRL4Nyn-11">
          <mxGeometry relative="1" as="geometry" />
        </mxCell>
        <mxCell id="Ivuzki8OxPt_olRL4Nyn-8" value="if integer_2 &amp;gt;= interger_1 and integer_3" style="strokeWidth=2;html=1;shape=mxgraph.flowchart.decision;whiteSpace=wrap;" vertex="1" parent="WIyWlLk6GJQsqaUBKTNV-1">
          <mxGeometry x="350" y="570" width="100" height="100" as="geometry" />
        </mxCell>
        <mxCell id="Ivuzki8OxPt_olRL4Nyn-28" style="edgeStyle=orthogonalEdgeStyle;rounded=0;orthogonalLoop=1;jettySize=auto;html=1;exitX=0.5;exitY=1;exitDx=0;exitDy=0;exitPerimeter=0;entryX=0.5;entryY=0;entryDx=0;entryDy=0;" edge="1" parent="WIyWlLk6GJQsqaUBKTNV-1" source="Ivuzki8OxPt_olRL4Nyn-9" target="Ivuzki8OxPt_olRL4Nyn-12">
          <mxGeometry relative="1" as="geometry" />
        </mxCell>
        <mxCell id="Ivuzki8OxPt_olRL4Nyn-9" value="if integer_3 &amp;gt;= integer_1 and integer_2" style="strokeWidth=2;html=1;shape=mxgraph.flowchart.decision;whiteSpace=wrap;" vertex="1" parent="WIyWlLk6GJQsqaUBKTNV-1">
          <mxGeometry x="470" y="590" width="100" height="100" as="geometry" />
        </mxCell>
        <mxCell id="Ivuzki8OxPt_olRL4Nyn-32" style="edgeStyle=orthogonalEdgeStyle;rounded=0;orthogonalLoop=1;jettySize=auto;html=1;exitX=0.5;exitY=1;exitDx=0;exitDy=0;entryX=0.5;entryY=0;entryDx=0;entryDy=0;entryPerimeter=0;" edge="1" parent="WIyWlLk6GJQsqaUBKTNV-1" source="Ivuzki8OxPt_olRL4Nyn-10" target="Ivuzki8OxPt_olRL4Nyn-15">
          <mxGeometry relative="1" as="geometry">
            <Array as="points">
              <mxPoint x="260" y="840" />
              <mxPoint x="330" y="840" />
            </Array>
          </mxGeometry>
        </mxCell>
        <mxCell id="Ivuzki8OxPt_olRL4Nyn-10" value="Print (&quot;integer_1 is the greatest number.&quot;)" style="shape=parallelogram;html=1;strokeWidth=2;perimeter=parallelogramPerimeter;whiteSpace=wrap;rounded=1;arcSize=12;size=0.23;" vertex="1" parent="WIyWlLk6GJQsqaUBKTNV-1">
          <mxGeometry x="210" y="720" width="100" height="60" as="geometry" />
        </mxCell>
        <mxCell id="Ivuzki8OxPt_olRL4Nyn-33" style="edgeStyle=orthogonalEdgeStyle;rounded=0;orthogonalLoop=1;jettySize=auto;html=1;exitX=0.5;exitY=1;exitDx=0;exitDy=0;entryX=0.5;entryY=0;entryDx=0;entryDy=0;entryPerimeter=0;" edge="1" parent="WIyWlLk6GJQsqaUBKTNV-1" source="Ivuzki8OxPt_olRL4Nyn-11" target="Ivuzki8OxPt_olRL4Nyn-15">
          <mxGeometry relative="1" as="geometry" />
        </mxCell>
        <mxCell id="Ivuzki8OxPt_olRL4Nyn-11" value="&lt;span&gt;Print (&quot;integer_2 is the greatest number.&quot;)&lt;/span&gt;" style="shape=parallelogram;html=1;strokeWidth=2;perimeter=parallelogramPerimeter;whiteSpace=wrap;rounded=1;arcSize=12;size=0.23;" vertex="1" parent="WIyWlLk6GJQsqaUBKTNV-1">
          <mxGeometry x="340" y="750" width="100" height="60" as="geometry" />
        </mxCell>
        <mxCell id="Ivuzki8OxPt_olRL4Nyn-34" style="edgeStyle=orthogonalEdgeStyle;rounded=0;orthogonalLoop=1;jettySize=auto;html=1;exitX=0.5;exitY=1;exitDx=0;exitDy=0;entryX=0.5;entryY=0;entryDx=0;entryDy=0;entryPerimeter=0;" edge="1" parent="WIyWlLk6GJQsqaUBKTNV-1" source="Ivuzki8OxPt_olRL4Nyn-12" target="Ivuzki8OxPt_olRL4Nyn-15">
          <mxGeometry relative="1" as="geometry">
            <Array as="points">
              <mxPoint x="520" y="850" />
              <mxPoint x="330" y="850" />
            </Array>
          </mxGeometry>
        </mxCell>
        <mxCell id="Ivuzki8OxPt_olRL4Nyn-12" value="&lt;span&gt;Print (&quot;integer_3 is the greatest number.&quot;)&lt;/span&gt;" style="shape=parallelogram;html=1;strokeWidth=2;perimeter=parallelogramPerimeter;whiteSpace=wrap;rounded=1;arcSize=12;size=0.23;" vertex="1" parent="WIyWlLk6GJQsqaUBKTNV-1">
          <mxGeometry x="470" y="780" width="100" height="60" as="geometry" />
        </mxCell>
        <mxCell id="Ivuzki8OxPt_olRL4Nyn-31" style="edgeStyle=orthogonalEdgeStyle;rounded=0;orthogonalLoop=1;jettySize=auto;html=1;exitX=0.5;exitY=1;exitDx=0;exitDy=0;" edge="1" parent="WIyWlLk6GJQsqaUBKTNV-1" source="Ivuzki8OxPt_olRL4Nyn-14" target="Ivuzki8OxPt_olRL4Nyn-15">
          <mxGeometry relative="1" as="geometry">
            <Array as="points">
              <mxPoint x="140" y="840" />
              <mxPoint x="330" y="840" />
            </Array>
          </mxGeometry>
        </mxCell>
        <mxCell id="Ivuzki8OxPt_olRL4Nyn-14" value="Print (&quot;This is not an integer.&quot;)" style="shape=parallelogram;html=1;strokeWidth=2;perimeter=parallelogramPerimeter;whiteSpace=wrap;rounded=1;arcSize=12;size=0.23;" vertex="1" parent="WIyWlLk6GJQsqaUBKTNV-1">
          <mxGeometry x="90" y="680" width="100" height="60" as="geometry" />
        </mxCell>
        <mxCell id="Ivuzki8OxPt_olRL4Nyn-15" value="Stop" style="strokeWidth=2;html=1;shape=mxgraph.flowchart.terminator;whiteSpace=wrap;" vertex="1" parent="WIyWlLk6GJQsqaUBKTNV-1">
          <mxGeometry x="280" y="870" width="100" height="60" as="geometry" />
        </mxCell>
      </root>
    </mxGraphModel>
  </diagram>
</mxfile>
